<svg id="visual" viewBox="0 0 540 960" width="540" height="960" xmlns="http://www.w3.org/2000/svg" xmlns:xlink="http://www.w3.org/1999/xlink" version="1.1"><rect x="0" y="0" width="540" height="960" fill="#e8eef2"></rect><path d="M329 960L319.3 942.2C309.7 924.3 290.3 888.7 286.2 853.2C282 817.7 293 782.3 299.5 746.8C306 711.3 308 675.7 316.7 640C325.3 604.3 340.7 568.7 340.3 533.2C340 497.7 324 462.3 310.2 426.8C296.3 391.3 284.7 355.7 290.8 320C297 284.3 321 248.7 336 213.2C351 177.7 357 142.3 346.8 106.8C336.7 71.3 310.3 35.7 297.2 17.8L284 0L540 0L540 17.8C540 35.7 540 71.3 540 106.8C540 142.3 540 177.7 540 213.2C540 248.7 540 284.3 540 320C540 355.7 540 391.3 540 426.8C540 462.3 540 497.7 540 533.2C540 568.7 540 604.3 540 640C540 675.7 540 711.3 540 746.8C540 782.3 540 817.7 540 853.2C540 888.7 540 924.3 540 942.2L540 960Z" fill="#babfeb"></path><path d="M407 960L396.5 942.2C386 924.3 365 888.7 354.2 853.2C343.3 817.7 342.7 782.3 346.7 746.8C350.7 711.3 359.3 675.7 369.2 640C379 604.3 390 568.7 382.8 533.2C375.7 497.7 350.3 462.3 338.7 426.8C327 391.3 329 355.7 329.5 320C330 284.3 329 248.7 338 213.2C347 177.7 366 142.3 378.8 106.8C391.7 71.3 398.3 35.7 401.7 17.8L405 0L540 0L540 17.8C540 35.7 540 71.3 540 106.8C540 142.3 540 177.7 540 213.2C540 248.7 540 284.3 540 320C540 355.7 540 391.3 540 426.8C540 462.3 540 497.7 540 533.2C540 568.7 540 604.3 540 640C540 675.7 540 711.3 540 746.8C540 782.3 540 817.7 540 853.2C540 888.7 540 924.3 540 942.2L540 960Z" fill="#a7b1ec"></path><path d="M419 960L417.5 942.2C416 924.3 413 888.7 409.8 853.2C406.7 817.7 403.3 782.3 406.8 746.8C410.3 711.3 420.7 675.7 416.5 640C412.3 604.3 393.7 568.7 393.3 533.2C393 497.7 411 462.3 415.5 426.8C420 391.3 411 355.7 409.5 320C408 284.3 414 248.7 411.8 213.2C409.7 177.7 399.3 142.3 390.3 106.8C381.3 71.3 373.7 35.7 369.8 17.8L366 0L540 0L540 17.8C540 35.7 540 71.3 540 106.8C540 142.3 540 177.7 540 213.2C540 248.7 540 284.3 540 320C540 355.7 540 391.3 540 426.8C540 462.3 540 497.7 540 533.2C540 568.7 540 604.3 540 640C540 675.7 540 711.3 540 746.8C540 782.3 540 817.7 540 853.2C540 888.7 540 924.3 540 942.2L540 960Z" fill="#91a4ec"></path><path d="M454 960L452.3 942.2C450.7 924.3 447.3 888.7 446 853.2C444.7 817.7 445.3 782.3 443 746.8C440.7 711.3 435.3 675.7 438.5 640C441.7 604.3 453.3 568.7 454.2 533.2C455 497.7 445 462.3 445.5 426.8C446 391.3 457 355.7 456.5 320C456 284.3 444 248.7 435 213.2C426 177.7 420 142.3 425.7 106.8C431.3 71.3 448.7 35.7 457.3 17.8L466 0L540 0L540 17.8C540 35.7 540 71.3 540 106.8C540 142.3 540 177.7 540 213.2C540 248.7 540 284.3 540 320C540 355.7 540 391.3 540 426.8C540 462.3 540 497.7 540 533.2C540 568.7 540 604.3 540 640C540 675.7 540 711.3 540 746.8C540 782.3 540 817.7 540 853.2C540 888.7 540 924.3 540 942.2L540 960Z" fill="#7898ec"></path><path d="M471 960L471.5 942.2C472 924.3 473 888.7 472.5 853.2C472 817.7 470 782.3 474.8 746.8C479.7 711.3 491.3 675.7 496.2 640C501 604.3 499 568.7 498.3 533.2C497.7 497.7 498.3 462.3 495.8 426.8C493.3 391.3 487.7 355.7 485.7 320C483.7 284.3 485.3 248.7 482.2 213.2C479 177.7 471 142.3 468.3 106.8C465.7 71.3 468.3 35.7 469.7 17.8L471 0L540 0L540 17.8C540 35.7 540 71.3 540 106.8C540 142.3 540 177.7 540 213.2C540 248.7 540 284.3 540 320C540 355.7 540 391.3 540 426.8C540 462.3 540 497.7 540 533.2C540 568.7 540 604.3 540 640C540 675.7 540 711.3 540 746.8C540 782.3 540 817.7 540 853.2C540 888.7 540 924.3 540 942.2L540 960Z" fill="#598cec"></path></svg>